<svg width="100%" height="100%" viewBox="0 0 24 24" xmlns="http://www.w3.org/2000/svg" fit="" preserveAspectRatio="xMidYMid meet" focusable="false"><path d="M22 6c-.535-2.628-5.32-4-10-4S2.535 3.372 2 6v12c.535 2.628 5.32 4 10 4s9.465-1.372 10-4V6ZM12 4c5.176 0 8 1.651 8 2.5S17.176 9 12 9 4 7.349 4 6.5 6.824 4 12 4Zm0 16c-5.176 0-8-1.651-8-2.5V9.303A16.972 16.972 0 0 0 12 11a16.972 16.972 0 0 0 8-1.697V17.5c0 .849-2.824 2.5-8 2.5Z"></path><path d="m4.127 14.626.974 1.747a8.06 8.06 0 0 1 1.379-.589l-.63-1.898c-.596.193-1.172.44-1.723.74Z"></path><path d="m7.6 13.424.402 1.96a17.88 17.88 0 0 1 1.58-.25l-.225-1.987c-.602.068-1.193.161-1.757.277Z"></path><path d="M14.414 15.133c.548.063 1.08.147 1.58.25l.403-1.96a20.072 20.072 0 0 0-1.757-.277l-.226 1.987Z"></path><path d="m18.143 13.884-.629 1.898c.477.153.938.35 1.378.588l.975-1.747a9.98 9.98 0 0 0-1.724-.74Z"></path><path d="m11.117 13.016.073 1.999c.255-.01.514-.015.776-.015.275-.005.563.004.84.015l.073-2c-.29-.01-.582-.015-.877-.015-.318-.007-.594.005-.885.016Z"></path></svg>